# Blender 4.1.1
# www.blender.org
mtllib lobby.mtl
o Map
v -10.968109 0.024482 7.265240
v -10.968109 3.024482 7.265240
v -6.805291 0.838482 -4.621356
v -10.968109 0.024482 -5.700604
v -10.968109 3.024482 -5.700604
v -7.804167 0.639181 3.761509
v 1.500000 0.038984 2.213615
v -4.805291 0.838482 -4.621356
v 1.500000 2.368550 2.213615
v -6.805291 0.838482 -4.872994
v 1.500000 0.038984 -0.510958
v -4.805291 0.838482 -4.872994
v 1.500000 2.368550 -0.510958
v 1.500000 3.024482 -5.700604
v 1.500000 0.024482 -5.700604
v 1.500000 0.024482 7.265240
v 1.500000 3.024482 7.265240
v -7.134712 0.639181 4.414427
v 5.685472 2.368550 -0.510958
v -1.934456 0.639181 3.761509
v 5.685472 0.038984 -0.510958
v 5.685472 0.038984 2.213615
v -1.934456 0.639181 4.414427
v 5.685472 2.368550 2.213615
v -1.934456 0.032666 4.414427
v -1.934456 0.032147 3.761509
v -7.134712 0.639181 7.265240
v -7.134712 0.024482 4.414427
v -7.134712 0.024482 7.265240
v -4.805291 0.024482 -5.138963
v -4.805291 0.024482 -4.621356
v -6.805291 0.024482 -4.621356
v -6.805291 0.024482 -5.138963
v -7.804167 0.024482 7.265240
v -7.804167 0.639181 7.265240
v -7.804167 0.024482 3.761509
vn -0.0000 -0.0000 -1.0000
vn -0.0000 -0.0000 1.0000
vn -0.0000 1.0000 -0.0000
vn -0.0000 -1.0000 -0.0000
vn -1.0000 -0.0000 -0.0000
vn 1.0000 -0.0000 -0.0000
vn -0.0000 0.3106 -0.9505
vt 0.462718 0.980691
vt 0.347043 0.980691
vt 0.347043 0.647752
vt 0.370745 0.647752
vt 0.370745 0.621939
vt 0.347043 0.621939
vt 0.347043 0.499942
vt 0.462718 0.499942
vt 0.231368 0.980691
vt 0.231368 0.499942
vt 0.347043 0.499942
vt 0.347043 0.980691
vt 0.663251 0.661326
vt 0.663251 0.499941
vt 0.768306 0.499941
vt 0.768306 0.661326
vt 0.663251 0.822710
vt 0.663251 0.661326
vt 0.768306 0.661326
vt 0.768306 0.822710
vt 0.590672 0.700454
vt 0.590672 0.499941
vt 0.615848 0.499941
vt 0.615848 0.726267
vt 0.480750 0.726267
vt 0.480750 0.700454
vt 0.115693 0.999883
vt 0.116252 0.799780
vt 0.206076 0.799780
vt 0.206076 0.694725
vt 0.116252 0.694725
vt 0.115693 0.499942
vt 0.231368 0.499942
vt 0.231368 0.999883
vt 0.858130 0.499941
vt 0.858130 0.661326
vt 0.348323 0.109924
vt 0.147809 0.109922
vt 0.147810 -0.000000
vt 0.480750 0.000001
vt 0.480749 0.499942
vt 0.000000 0.499942
vt -0.000000 0.000001
vt 0.121996 0.000001
vt 0.121996 0.135099
vt 0.348323 0.135099
vt 0.115693 1.000000
vt -0.000000 0.999960
vt 0.000006 0.499942
vt 0.115618 0.499950
vt 0.581568 0.861365
vt 0.557867 0.861365
vt 0.557867 0.726267
vt 0.581568 0.726267
vt 0.639254 0.499941
vt 0.639550 0.726267
vt 0.480750 0.499941
vt 0.480750 0.000000
vt 0.961499 0.000000
vt 0.961499 0.499941
vt 0.753075 0.822710
vt 0.753075 0.927765
vt 0.663251 0.927765
vt 0.663251 0.822710
vt 0.581568 0.726267
vt 0.605270 0.726267
vt 0.605270 0.836190
vt 0.581568 0.836190
vt 0.858130 0.661326
vt 0.858130 0.822710
vt 0.628676 0.828559
vt 0.605270 0.828559
vt 0.605270 0.803384
vt 0.628656 0.803384
vt 0.639865 0.499941
vt 0.663251 0.499941
vt 0.663251 0.700454
vt 0.639550 0.700454
vt 0.659508 0.700454
vt 0.649252 0.731840
vt 0.639550 0.731840
vt 0.639550 0.840344
vt 0.639550 0.808957
vt 0.649252 0.808957
vt 0.659508 0.840344
vt 0.605270 0.803384
vt 0.605270 0.726267
vt 0.638289 0.726267
vt 0.638289 0.803384
s 0
usemtl Material.003
f 4/9/2 15/10/2 14/11/2 5/12/2
f 13/17/4 19/18/4 24/19/4 9/20/4
f 15/27/5 11/28/5 13/29/5 9/30/5 7/31/5 16/32/5 17/33/5 14/34/5
f 11/16/2 21/15/2 19/35/2 13/36/2
f 21/61/5 22/62/5 24/63/5 19/64/5
f 9/20/1 24/19/1 22/69/1 7/70/1
usemtl Material.004
f 7/13/3 22/14/3 21/15/3 11/16/3
f 25/37/3 28/38/3 29/39/3 16/40/3 15/41/3 4/42/3 1/43/3 34/44/3 36/45/3 26/46/3
usemtl Material
f 14/57/4 17/58/4 2/59/4 5/60/4
usemtl Material.002
f 34/51/5 35/52/5 6/53/5 36/54/5
f 26/55/1 36/56/1 6/24/1 20/23/1
f 28/65/6 18/66/6 27/67/6 29/68/6
f 26/71/6 20/72/6 23/73/6 25/74/6
f 25/75/2 23/76/2 18/77/2 28/78/2
usemtl Material.005
f 18/21/3 23/22/3 20/23/3 6/24/3 35/25/3 27/26/3
f 30/79/6 12/80/6 8/81/6 31/78/6
f 32/82/5 3/83/5 10/84/5 33/85/5
f 12/80/3 10/84/3 3/83/3 8/81/3
f 10/86/7 12/87/7 30/88/7 33/89/7
usemtl Material.008
f 17/1/1 16/2/1 29/3/1 27/4/1 35/5/1 34/6/1 1/7/1 2/8/1
usemtl Light
f 4/47/6 5/48/6 2/49/6 1/50/6
l 6 18
o Lantern
v -2.544807 0.649399 4.237906
v -2.544807 0.973692 4.237906
v -2.544807 0.649399 4.023257
v -2.544807 0.973692 4.023257
v -2.330158 0.649399 4.237906
v -2.330158 0.973692 4.237906
v -2.330158 0.649399 4.023257
v -2.330158 0.973692 4.023257
v -2.560504 1.001682 4.253603
v -2.560504 1.001682 4.007561
v -2.314461 1.001682 4.007561
v -2.314461 1.001682 4.253603
v -2.560784 0.624407 4.007280
v -2.560784 0.624407 4.253883
v -2.314181 0.624407 4.007280
v -2.314181 0.624407 4.253883
vn -0.0000 1.0000 -0.0000
vn -0.0000 0.5386 -0.8425
vn -0.8722 -0.4891 -0.0000
vn -0.0000 -0.4891 0.8722
vn -0.0000 -0.4891 -0.8722
vn 0.8722 -0.4891 -0.0000
vn -0.0000 -1.0000 -0.0000
vn -0.8425 0.5386 -0.0000
vn 0.8425 0.5386 -0.0000
vn -0.0000 0.5386 0.8425
vt 0.375000 0.250000
vt 0.375000 1.000000
vt 0.375000 0.750000
vt 0.375000 0.500000
vt 0.625000 0.250000
vt 0.625000 0.000000
vt 0.625000 0.500000
vt 0.875000 0.500000
vt 0.875000 0.750000
vt 0.625000 0.750000
vt 0.625000 1.000000
vt 0.125000 0.500000
vt 0.125000 0.750000
vt 0.375000 0.000000
s 0
usemtl Material.006
f 39/90/8 37/91/8 41/92/8 43/93/8
f 49/101/14 51/93/14 52/92/14 50/102/14
f 38/100/14 40/94/14 44/96/14 42/99/14
usemtl Material.007
f 39/90/9 43/93/9 51/93/9 49/90/9
f 40/94/10 38/95/10 45/95/10 46/94/10
f 47/96/8 46/97/8 45/98/8 48/99/8
f 38/100/11 42/99/11 48/99/11 45/100/11
f 44/96/12 40/94/12 46/94/12 47/96/12
f 42/99/13 44/96/13 47/96/13 48/99/13
f 37/103/15 39/90/15 49/90/15 50/103/15
f 43/93/16 41/92/16 52/92/16 51/93/16
f 41/92/17 37/91/17 50/91/17 52/92/17
